<?xml version="1.0" encoding="utf-8"?>
<!-- Generator: Adobe Illustrator 19.0.0, SVG Export Plug-In . SVG Version: 6.00 Build 0)  -->
<svg version="1.1" id="b368e7d6-7c4a-408c-9a35-0514749a7e1a"
	 xmlns="http://www.w3.org/2000/svg" xmlns:xlink="http://www.w3.org/1999/xlink" x="0px" y="0px" viewBox="-104 280.9 870 520.1"
	 style="enable-background:new -104 280.9 870 520.1;" xml:space="preserve">
<style type="text/css">
	.st0{fill:#8865E5;}
	.st1{fill:#F0F1F5;}
	.st2{fill:#FFFFFF;}
	.st3{fill:#673AB7;}
	.st4{fill:#E8E8E8;}
	.st5{fill:#FFB8B8;}
	.st6{fill:#2F2E41;}
	.st7{fill:#7448D3;}
	.st8{fill:#3F3D56;}
	.st9{fill:#CCCCCC;}
</style>
<g>
	<path class="st0" d="M590.2,793.8c-9.2-7.8-14.8-20.1-13.3-32.1s10.6-23,22.3-25.6c11.7-2.6,25.2,4.5,28.8,16.1
		c2-22.2,4.2-45.3,16.1-64.3c10.7-17.1,29.2-29.4,49.3-31.6s41.2,6.1,53.7,21.9c12.5,15.8,15.6,38.9,6.8,57.1
		c-6.5,13.4-18.4,23.3-30.9,31.5c-40.3,26-88.6,36.6-136.1,29.8L590.2,793.8z"/>
	<path class="st1" d="M727.2,662.9c-16.5,13.5-31.8,28.5-45.3,45c-21.3,25.6-38.6,54.4-51.1,85.4c-0.9,2.2,2.7,3.2,3.6,1
		c20.6-50.1,53.5-94.4,95.6-128.7C731.8,664,729.1,661.4,727.2,662.9z"/>
	<path class="st0" d="M270.8,791.7c12.7-10.7,20.4-27.6,18.4-44c-2-16.5-14.5-31.6-30.7-35.1s-34.7,6.2-39.6,22
		c-2.7-30.5-5.8-62.3-22-88.3c-14.7-23.5-40.1-40.4-67.7-43.4c-27.6-3-56.6,8.4-73.8,30.1s-21.4,53.4-9.3,78.4
		c8.9,18.4,25.2,32.1,42.4,43.3c54.6,35.6,122.4,50.4,186.9,40.9"/>
	<path class="st1" d="M82.6,611.9c22.8,18.5,43.6,39.2,62.3,61.9c18.7,22.6,35.2,46.9,49.1,72.7c7.9,14.5,14.8,29.3,21,44.5
		c1.2,3.1-3.7,4.5-5,1.4c-11-26.8-24.6-52.5-40.5-76.7c-15.9-24.1-34.1-46.6-54.4-67.2c-11.4-11.7-23.6-22.7-36.2-32.9
		C76.3,613.5,80,609.8,82.6,611.9L82.6,611.9z"/>
	<path class="st2" d="M555.8,797.8h-302V487.9c0-65.9,53.6-119.6,119.6-119.6h62.9c65.9,0,119.6,53.6,119.6,119.6V797.8z"/>
	<path class="st3" d="M492.9,797.8H253.8V487.9c-0.1-25.2,7.9-49.9,22.8-70.2c0.6-0.7,1.1-1.5,1.7-2.2c7.2-9.4,15.8-17.8,25.5-24.7
		c0.6-0.4,1.1-0.8,1.7-1.2c8.1-5.6,16.8-10.2,26.1-13.7c0.6-0.2,1.1-0.4,1.7-0.6c8.4-3,17-5,25.7-6c0.6-0.1,1.1-0.2,1.7-0.2
		c8.5-0.9,17.2-0.9,25.7,0c0.6,0.1,1.1,0.1,1.7,0.2c8.8,1.1,17.4,3.1,25.7,6c0.6,0.2,1.1,0.4,1.7,0.6c9.1,3.4,17.7,7.9,25.7,13.4
		c0.6,0.4,1.1,0.7,1.7,1.2c5.4,3.9,10.5,8.2,15.2,12.9c3.8,3.8,7.3,7.8,10.5,12.1c0.6,0.7,1.1,1.5,1.7,2.2
		c14.9,20.4,22.9,45,22.8,70.2L492.9,797.8L492.9,797.8z"/>
	<circle class="st4" cx="473.5" cy="645.9" r="13.2"/>
	<polygon class="st5" points="531.1,788.4 520.9,788.4 516.1,749.3 531.1,749.3 	"/>
	<path class="st6" d="M513.7,785.5h19.5l0,0v12.3l0,0h-31.9l0,0l0,0C501.4,791,506.9,785.5,513.7,785.5L513.7,785.5z"/>
	<polygon class="st5" points="581.5,788.4 571.4,788.4 566.6,749.3 581.5,749.3 	"/>
	<path class="st6" d="M564.2,785.5h19.5l0,0v12.3l0,0h-31.9l0,0l0,0C551.8,791,557.4,785.5,564.2,785.5L564.2,785.5z"/>
	<path class="st5" d="M480.2,648.5c-2.7-4.1-1.7-9.6,2.4-12.3c0.4-0.3,0.9-0.6,1.4-0.7l34.5-95.1l17,9.3l-39.4,90.8
		c1.7,4.6-0.7,9.8-5.3,11.5C486.8,653.4,482.5,652,480.2,648.5z"/>
	<path class="st5" d="M576.3,666.4c-4.2-2.5-5.7-7.9-3.3-12.2c0.2-0.4,0.6-0.9,0.9-1.3l-10.7-100.5l19.3,0.9l4.5,98.9
		c3.6,3.4,3.7,9.1,0.2,12.7C584.4,667.8,580,668.4,576.3,666.4L576.3,666.4z"/>
	<circle class="st5" cx="545.5" cy="502.4" r="20.4"/>
	<path class="st7" d="M576.2,643.5H515l0.1-0.5c0.1-0.7,10.9-71.5,3-94.7c-1.7-4.7,0.5-9.9,5-12.1l0,0c11.4-5.4,33.3-12,51.7,4.1
		c5.5,4.9,8.4,12,7.9,19.4L576.2,643.5z"/>
	<path class="st7" d="M526.8,582l-27.6-5.6l12.9-30.6c1.6-6.2,7.9-9.9,14.1-8.3c6.2,1.6,9.8,7.9,8.3,14.1L526.8,582z"/>
	<path class="st7" d="M562.1,592.4l-1.7-38c-1.2-7.1,2.8-13.9,9.1-15s12.4,3.9,13.7,11.1l6.2,35.5L562.1,592.4z"/>
	<path class="st6" d="M574.2,639c9.8,37.6,10.9,85.3,8.3,137.3l-13.2-1.7l-24-99.3L532,776.3l-14.9-0.8
		c-4.5-54.6-8.8-101.5-1.7-132.4L574.2,639z"/>
	<path class="st6" d="M558.9,518.2c-3.8,4.1-10.8,1.9-11.3-3.6c0-0.4,0-0.8,0-1.3c0.2-2.5,1.7-4.6,1.3-7.3c-0.1-0.7-0.3-1.2-0.7-1.7
		c-3.1-4.1-10.1,1.8-13-1.8c-1.7-2.2,0.3-5.8-1.1-8.3c-1.7-3.3-7-1.7-10.3-3.5c-3.6-2-3.5-7.6-1-11.1c3-4.1,8.1-6.4,13.2-6.7
		s10.2,1.1,14.9,2.9c5.4,2.1,10.8,5,14.1,9.8c4.1,5.8,4.4,13.5,2.4,20.3C566.2,509.8,562,514.9,558.9,518.2z"/>
	<path class="st8" d="M734.1,798.2H123.2c-0.6,0-1-0.4-1-1c0-0.6,0.4-1,1-1h610.9c0.6,0,1,0.4,1,1
		C735.1,797.8,734.6,798.2,734.1,798.2z"/>
	<path class="st2" d="M427.1,708H319.6c-3,0-5.4-2.4-5.4-5.3V462.6c0-3,2.4-5.3,5.4-5.3h107.6c3,0,5.4,2.4,5.4,5.3v240.1
		C432.5,705.6,430.1,708,427.1,708z"/>
	<rect x="314.2" y="534.9" class="st9" width="118.3" height="1.7"/>
	<rect x="314.6" y="629.4" class="st9" width="118.3" height="1.7"/>
	<rect x="351.4" y="457.3" class="st9" width="1.7" height="251.5"/>
	<rect x="392.8" y="457.3" class="st9" width="1.7" height="251.5"/>
</g>
</svg>
