<?xml version="1.0" encoding="utf-8"?>
<!-- Generator: Adobe Illustrator 19.0.0, SVG Export Plug-In . SVG Version: 6.00 Build 0)  -->
<svg version="1.1" id="b9bf6650-716f-405e-b16b-128ee0039b2f"
	 xmlns="http://www.w3.org/2000/svg" xmlns:xlink="http://www.w3.org/1999/xlink" x="0px" y="0px" viewBox="-21 256 1036 570"
	 style="enable-background:new -21 256 1036 570;" xml:space="preserve">
<style type="text/css">
	.st0{fill:#3F3D56;}
	.st1{opacity:0.3;fill:#6C63FF;enable-background:new    ;}
	.st2{fill:#693FC4;}
	.st3{opacity:0.1;enable-background:new    ;}
	.st4{fill:#F2F2F2;}
</style>
<title>Books</title>
<g>
	<path class="st0" d="M293.5,434.2c-5.2,0-9.4-4.2-9.4-9.4c0-5.2,4.2-9.4,9.4-9.4c5.2,0,9.4,4.2,9.4,9.4l0,0
		C302.9,430,298.7,434.2,293.5,434.2z M293.5,417.1c-4.3,0-7.8,3.5-7.8,7.8c0,4.3,3.5,7.8,7.8,7.8s7.8-3.5,7.8-7.8
		C301.3,420.6,297.8,417.1,293.5,417.1z"/>
	<path class="st0" d="M618.1,643.9h-15.3v-15.3h15.3V643.9z M603.8,642.7h13v-13h-13V642.7z"/>
	<path class="st0" d="M299.3,654.8l-10.5-11.3l11.3-10.5l10.5,11.3L299.3,654.8z M290.5,643.6l8.9,9.5l9.5-8.9l-8.9-9.5L290.5,643.6
		z"/>
	<path class="st0" d="M625.8,734.5c-16.8-2.6-33-4.9-48.6-6.8l6-12c-2.1-0.7-11.1,6.2-11.1,6.2l7.6-34.6
		c-10.4,1.4-15.2,36.7-15.2,36.7l-11.8-11.7l5.8,13.3c-47.6-5-88.6-6.6-123.1-6.2l5.1-10.2c-2.1-0.7-11.1,6.2-11.1,6.2l7.6-34.6
		c-10.4,1.4-15.2,36.7-15.2,36.7l-11.8-11.8l6.2,14.1c-23.6,0.7-47.2,2.6-70.6,5.7c5.1-15.9,23-31.2,23-31.2
		c-13.7,4.3-20.9,11.2-24.6,17.7c-0.8-32.7,4.3-65.3,14.9-96.3c0,0-27.7,62.3-23.5,103.8l0.5,7.4c-24.1,3.7-36.2,7.5-36.2,7.5
		L625.8,734.5z"/>
	<circle class="st1" cx="455" cy="542.7" r="108.2"/>
	<polygon class="st2" points="410.6,404.9 338.5,492.4 445.2,618.3 516.3,534.7 	"/>
	<polygon class="st3" points="410.6,404.9 338.5,492.4 445.2,618.3 516.3,534.7 	"/>
	<path class="st4" d="M341.4,493.3L341.4,493.3c1.6-2.8,3.6-5.5,5.9-7.8l66.2-67.1c0,0,23-3.9,27.8,7.7l-84.5,69.2L341.4,493.3z"/>
	<path class="st2" d="M338,491.9l98,149.9c0,0,9.6,6.8,19.2,2.9L555.7,577L449.1,415.5L353,490.5L338,491.9z"/>
	
		<rect x="368.9" y="460.9" transform="matrix(-0.8121 0.5835 -0.5835 -0.8121 1006.4321 599.1754)" class="st0" width="75.7" height="1.5"/>
	
		<rect x="413.7" y="487.9" transform="matrix(-0.8341 0.5517 -0.5517 -0.8341 1069.662 800.3248)" class="st0" width="1.5" height="146.3"/>
	
		<rect x="456.5" y="601.1" transform="matrix(-0.8055 0.5926 -0.5926 -0.8055 1254.1443 792.1821)" class="st0" width="81.1" height="1.5"/>
	
		<rect x="489.1" y="428.4" transform="matrix(-0.8208 0.5713 -0.5713 -0.8208 1178.5015 633.3233)" class="st0" width="1.5" height="146.3"/>
	
		<rect x="333.6" y="452.3" transform="matrix(-0.7367 0.6762 -0.6762 -0.7367 975.1425 525.7958)" class="st0" width="103.2" height="0.9"/>
	
		<rect x="336.9" y="453" transform="matrix(-0.7497 0.6618 -0.6618 -0.7497 982.2704 535.4712)" class="st0" width="106" height="0.9"/>
	
		<rect x="339.6" y="453.7" transform="matrix(-0.7681 0.6403 -0.6403 -0.7681 986.1486 551.2896)" class="st0" width="107.4" height="0.9"/>
</g>
</svg>
